<?xml version="1.0" encoding="UTF-8"?>
<svg width="984px" height="297px" viewBox="0 0 984 297" version="1.1" xmlns="http://www.w3.org/2000/svg" xmlns:xlink="http://www.w3.org/1999/xlink">
    <!-- Generator: Sketch 63.1 (92452) - https://sketch.com -->
    <title>Logo + name</title>
    <desc>Created with Sketch.</desc>
    <g id="Logo-+-name" stroke="none" stroke-width="1" fill="none" fill-rule="evenodd">
        <path d="M284.112,180.711 C289.796,180.711 292.638,176.245 292.638,171.373 C292.638,166.704 289.796,162.441 284.112,162.441 C278.428,162.441 275.586,166.704 275.586,171.373 C275.586,176.245 278.428,180.711 284.112,180.711 Z M290.405,295 L290.405,199.387 L277.819,202.026 L277.819,295 L290.405,295 Z M328.82275,295 L328.82275,224.559 C336.53675,216.845 346.88975,211.364 357.03975,211.364 C371.04675,211.364 377.54275,218.672 377.54275,234.912 L377.54275,295 L390.12875,295 L390.12875,231.258 C390.12875,210.958 379.16675,199.387 360.49075,199.387 C350.74675,199.387 338.56675,204.868 328.82275,214.612 L328.82275,199.387 L316.23675,202.026 L316.23675,295 L328.82275,295 Z M429.9675,295 L429.9675,213.597 L458.5905,213.597 L459.1995,202.432 L429.9675,202.432 L429.9675,187.004 C429.9675,171.982 435.0425,165.283 445.3955,165.283 C450.4705,165.283 455.3425,167.11 459.6055,169.14 C459.6055,169.343 462.6505,157.975 462.6505,157.772 C458.3875,155.742 451.8915,153.712 445.5985,153.712 C429.3585,153.712 417.9905,162.644 417.5845,187.207 L417.3815,201.823 L403.3745,205.071 L402.5625,212.988 L417.5845,214.003 L417.5845,295 L429.9675,295 Z M510.40625,297.639 C521.97725,297.639 532.33025,294.594 540.24725,289.722 L537.81125,278.151 C530.70625,282.82 520.96225,285.865 510.81225,285.865 C491.32425,285.865 478.73825,270.843 478.33225,249.934 L478.33225,248.919 L541.26225,248.513 C542.48025,244.453 543.29225,238.566 543.29225,233.694 C543.29225,212.785 529.89425,199.387 509.39125,199.387 C484.21925,199.387 465.54325,220.093 465.54325,249.325 C465.54325,277.542 483.61025,297.639 510.40625,297.639 Z M479.14425,238.972 C481.17425,223.544 491.93325,210.755 508.57925,210.755 C523.19525,210.755 530.90925,220.499 530.90925,234.709 C530.90925,235.724 530.90925,237.754 530.70625,238.769 L479.14425,238.972 Z M575.823,295 L575.823,235.318 C583.131,218.672 592.266,211.364 602.01,211.364 C607.288,211.364 612.16,212.988 616.22,215.424 L619.468,203.65 C615.205,201.214 609.318,199.387 603.228,199.387 C591.048,199.387 581.913,207.304 575.823,219.281 L575.823,199.387 L563.237,202.026 L563.237,295 L575.823,295 Z M668.44175,297.639 C680.01275,297.639 690.36575,294.594 698.28275,289.722 L695.84675,278.151 C688.74175,282.82 678.99775,285.865 668.84775,285.865 C649.35975,285.865 636.77375,270.843 636.36775,249.934 L636.36775,248.919 L699.29775,248.513 C700.51575,244.453 701.32775,238.566 701.32775,233.694 C701.32775,212.785 687.92975,199.387 667.42675,199.387 C642.25475,199.387 623.57875,220.093 623.57875,249.325 C623.57875,277.542 641.64575,297.639 668.44175,297.639 Z M637.17975,238.972 C639.20975,223.544 649.96875,210.755 666.61475,210.755 C681.23075,210.755 688.94475,220.499 688.94475,234.709 C688.94475,235.724 688.94475,237.754 688.74175,238.769 L637.17975,238.972 Z M733.8585,295 L733.8585,224.559 C741.5725,216.845 751.9255,211.364 762.0755,211.364 C776.0825,211.364 782.5785,218.672 782.5785,234.912 L782.5785,295 L795.1645,295 L795.1645,231.258 C795.1645,210.958 784.2025,199.387 765.5265,199.387 C755.7825,199.387 743.6025,204.868 733.8585,214.612 L733.8585,199.387 L721.2725,202.026 L721.2725,295 L733.8585,295 Z M859.36325,297.639 C870.12225,297.639 880.27225,294.594 888.18925,289.722 L885.55025,278.151 C878.44525,282.82 869.10725,285.865 859.76925,285.865 C840.07825,285.865 826.88325,271.046 826.88325,248.31 C826.88325,226.183 839.46925,211.161 859.56625,211.161 C869.31025,211.161 878.24225,214.003 885.34725,218.672 L888.59525,207.304 C880.67825,202.229 870.93425,199.387 859.56625,199.387 C833.17625,199.387 813.89125,219.687 813.89125,248.716 C813.89125,277.542 831.34925,297.639 859.36325,297.639 Z M945.486,297.639 C957.057,297.639 967.41,294.594 975.327,289.722 L972.891,278.151 C965.786,282.82 956.042,285.865 945.892,285.865 C926.404,285.865 913.818,270.843 913.412,249.934 L913.412,248.919 L976.342,248.513 C977.56,244.453 978.372,238.566 978.372,233.694 C978.372,212.785 964.974,199.387 944.471,199.387 C919.299,199.387 900.623,220.093 900.623,249.325 C900.623,277.542 918.69,297.639 945.486,297.639 Z M914.224,238.972 C916.254,223.544 927.013,210.755 943.659,210.755 C958.275,210.755 965.989,220.499 965.989,234.709 C965.989,235.724 965.989,237.754 965.786,238.769 L914.224,238.972 Z" id="inference" fill="#000000" fill-rule="nonzero"></path>
        <path d="M316.998,141.639 C327.757,141.639 337.907,138.594 345.824,133.722 L343.185,122.151 C336.08,126.82 326.742,129.865 317.404,129.865 C297.713,129.865 284.518,115.046 284.518,92.31 C284.518,70.183 297.104,55.161 317.201,55.161 C326.945,55.161 335.877,58.003 342.982,62.672 L346.23,51.304 C338.313,46.229 328.569,43.387 317.201,43.387 C290.811,43.387 271.526,63.687 271.526,92.716 C271.526,121.542 288.984,141.639 316.998,141.639 Z M403.12075,141.639 C428.90175,141.639 448.79575,121.948 448.79575,92.31 C448.79575,62.469 430.11975,43.387 404.13575,43.387 C378.15175,43.387 358.25775,63.078 358.25775,92.716 C358.25775,122.557 377.33975,141.639 403.12075,141.639 Z M403.72975,130.271 C384.03875,130.271 370.84375,115.046 370.84375,92.31 C370.84375,70.386 383.83575,54.755 403.52675,54.755 C423.21775,54.755 436.41275,69.98 436.41275,92.716 C436.41275,114.64 423.42075,130.271 403.72975,130.271 Z M480.9205,139 L480.9205,68.559 C488.6345,60.845 498.9875,55.364 509.1375,55.364 C523.1445,55.364 529.6405,62.672 529.6405,78.912 L529.6405,139 L542.2265,139 L542.2265,75.258 C542.2265,54.958 531.2645,43.387 512.5885,43.387 C502.8445,43.387 490.6645,48.868 480.9205,58.612 L480.9205,43.387 L468.3345,46.026 L468.3345,139 L480.9205,139 Z M592.62125,142.045 C599.32025,142.045 606.83125,140.218 613.32725,137.173 L611.09425,126.211 C605.41025,128.647 599.32025,130.677 593.23025,130.677 C583.48625,130.677 579.22325,124.993 579.62925,113.219 L581.05025,57.597 L611.90625,57.597 L612.51525,46.432 L581.45625,46.432 L582.06525,24.711 L570.08825,24.711 L569.47925,45.823 L555.47225,49.071 L554.86325,56.988 L569.07325,57.8 L567.65225,112.813 C567.04325,132.301 574.96025,142.045 592.62125,142.045 Z M636.52,24.711 C642.204,24.711 645.046,20.245 645.046,15.373 C645.046,10.704 642.204,6.441 636.52,6.441 C630.836,6.441 627.994,10.704 627.994,15.373 C627.994,20.245 630.836,24.711 636.52,24.711 Z M642.813,139 L642.813,43.387 L630.227,46.026 L630.227,139 L642.813,139 Z M681.23075,139 L681.23075,68.559 C688.94475,60.845 699.29775,55.364 709.44775,55.364 C723.45475,55.364 729.95075,62.672 729.95075,78.912 L729.95075,139 L742.53675,139 L742.53675,75.258 C742.53675,54.958 731.57475,43.387 712.89875,43.387 C703.15475,43.387 690.97475,48.868 681.23075,58.612 L681.23075,43.387 L668.64475,46.026 L668.64475,139 L681.23075,139 Z M827.8475,141.639 L840.4335,139 L840.4335,46.026 L827.8475,46.026 L827.8475,116.467 C820.3365,124.181 809.9835,129.662 799.2245,129.662 C785.6235,129.662 779.1275,122.354 779.1275,106.114 L779.1275,46.026 L766.5415,46.026 L766.5415,109.768 C766.5415,130.068 777.7065,141.639 795.7735,141.639 C806.1265,141.639 818.3065,136.361 827.8475,126.617 L827.8475,141.639 L827.8475,141.639 Z M887.37725,141.639 C898.33925,141.639 908.28625,135.549 914.57925,127.835 L915.18825,127.835 C916.60925,136.97 923.30825,141.842 935.48825,141.03 L936.30025,130.677 C928.18025,130.88 926.96225,128.038 926.96225,121.339 L926.96225,76.679 L926.96225,76.679 C927.16525,53.131 915.18825,43.387 893.67025,43.387 C881.49025,43.387 867.48325,48.665 859.16025,54.552 L862.00225,66.326 C869.91925,60.439 882.30225,55.161 892.45225,55.161 C907.88025,55.161 914.37625,62.672 914.37625,77.288 L914.37625,82.769 L914.37625,82.769 C871.13725,85.205 857.94225,99.009 857.94225,115.858 C857.94225,130.677 870.32525,141.639 887.37725,141.639 Z M890.21925,130.677 C879.25725,130.677 871.13725,124.384 871.13725,114.437 C871.13725,102.054 882.50525,94.949 914.37625,91.295 L914.37625,118.497 C908.69225,124.993 900.16625,130.677 890.21925,130.677 Z M963.756,139 L963.756,-0.461 L951.17,2.178 L951.17,139 L963.756,139 Z" id="continual" fill="#000000" fill-rule="nonzero"></path>
        <g id="Logo" transform="translate(0.000000, 43.000000)" fill="#EE4C2C">
            <polygon id="Rectangle" opacity="0.5" points="0 60.6859506 103 0 103 193.314049 0 254"></polygon>
            <polygon id="Rectangle" opacity="0.5" points="68 60.6859506 171 0 171 193.314049 68 254"></polygon>
            <polygon id="Rectangle" points="133 60.6859506 236 0 236 193.314049 133 254"></polygon>
        </g>
    </g>
</svg>